<?xml version="1.0" encoding="UTF-8"?>
<!DOCTYPE svg PUBLIC "-//W3C//DTD SVG 1.1//EN" "http://www.w3.org/Graphics/SVG/1.1/DTD/svg11.dtd">
<svg version="1.2" width="210mm" height="297mm" viewBox="0 0 21000 29700" preserveAspectRatio="xMidYMid" fill-rule="evenodd" clip-path="url(#presentation_clip_path)" stroke-width="28.222" stroke-linejoin="round" xmlns="http://www.w3.org/2000/svg" xmlns:ooo="http://xml.openoffice.org/svg/export" xmlns:xlink="http://www.w3.org/1999/xlink" xml:space="preserve">
 <defs class="ClipPathGroup">
  <clipPath id="presentation_clip_path" clipPathUnits="userSpaceOnUse">
   <rect x="0" y="0" width="21000" height="29700"/>
  </clipPath>
 </defs>
 <defs class="TextShapeIndex">
  <g ooo:slide="id1" ooo:id-list="id3"/>
 </defs>
 <defs class="EmbeddedBulletChars">
  <g id="bullet-char-template(57356)" transform="scale(0.00048828125,-0.00048828125)">
   <path d="M 580,1141 L 1163,571 580,0 -4,571 580,1141 Z"/>
  </g>
  <g id="bullet-char-template(57354)" transform="scale(0.00048828125,-0.00048828125)">
   <path d="M 8,1128 L 1137,1128 1137,0 8,0 8,1128 Z"/>
  </g>
  <g id="bullet-char-template(10146)" transform="scale(0.00048828125,-0.00048828125)">
   <path d="M 174,0 L 602,739 174,1481 1456,739 174,0 Z M 1358,739 L 309,1346 659,739 1358,739 Z"/>
  </g>
  <g id="bullet-char-template(10132)" transform="scale(0.00048828125,-0.00048828125)">
   <path d="M 2015,739 L 1276,0 717,0 1260,543 174,543 174,936 1260,936 717,1481 1274,1481 2015,739 Z"/>
  </g>
  <g id="bullet-char-template(10007)" transform="scale(0.00048828125,-0.00048828125)">
   <path d="M 0,-2 C -7,14 -16,27 -25,37 L 356,567 C 262,823 215,952 215,954 215,979 228,992 255,992 264,992 276,990 289,987 310,991 331,999 354,1012 L 381,999 492,748 772,1049 836,1024 860,1049 C 881,1039 901,1025 922,1006 886,937 835,863 770,784 769,783 710,716 594,584 L 774,223 C 774,196 753,168 711,139 L 727,119 C 717,90 699,76 672,76 641,76 570,178 457,381 L 164,-76 C 142,-110 111,-127 72,-127 30,-127 9,-110 8,-76 1,-67 -2,-52 -2,-32 -2,-23 -1,-13 0,-2 Z"/>
  </g>
  <g id="bullet-char-template(10004)" transform="scale(0.00048828125,-0.00048828125)">
   <path d="M 285,-33 C 182,-33 111,30 74,156 52,228 41,333 41,471 41,549 55,616 82,672 116,743 169,778 240,778 293,778 328,747 346,684 L 369,508 C 377,444 397,411 428,410 L 1163,1116 C 1174,1127 1196,1133 1229,1133 1271,1133 1292,1118 1292,1087 L 1292,965 C 1292,929 1282,901 1262,881 L 442,47 C 390,-6 338,-33 285,-33 Z"/>
  </g>
  <g id="bullet-char-template(9679)" transform="scale(0.00048828125,-0.00048828125)">
   <path d="M 813,0 C 632,0 489,54 383,161 276,268 223,411 223,592 223,773 276,916 383,1023 489,1130 632,1184 813,1184 992,1184 1136,1130 1245,1023 1353,916 1407,772 1407,592 1407,412 1353,268 1245,161 1136,54 992,0 813,0 Z"/>
  </g>
  <g id="bullet-char-template(8226)" transform="scale(0.00048828125,-0.00048828125)">
   <path d="M 346,457 C 273,457 209,483 155,535 101,586 74,649 74,723 74,796 101,859 155,911 209,963 273,989 346,989 419,989 480,963 531,910 582,859 608,796 608,723 608,648 583,586 532,535 482,483 420,457 346,457 Z"/>
  </g>
  <g id="bullet-char-template(8211)" transform="scale(0.00048828125,-0.00048828125)">
   <path d="M -4,459 L 1135,459 1135,606 -4,606 -4,459 Z"/>
  </g>
 </defs>
 <defs class="TextEmbeddedBitmaps"/>
 <g>
  <g id="id2" class="Master_Slide">
   <g id="bg-id2" class="Background"/>
   <g id="bo-id2" class="BackgroundObjects"/>
  </g>
 </g>
 <g class="SlideGroup">
  <g>
   <g id="id1" class="Slide" clip-path="url(#presentation_clip_path)">
    <g class="Page">
     <g class="com.sun.star.drawing.CustomShape">
      <g id="id3">
       <path fill="rgb(0,0,0)" stroke="none" d="M 1531,2153 L 1425,3360 1576,3210 1576,3210 1645,3154 1576,2574 1576,2569 1531,2153 Z M 1487,1903 L 1576,1814 1576,1814 1577,1813 1821,3827 1731,3900 1672,3380 1576,3458 1576,3458 1400,3633 1347,4253 1265,4335 1487,1903 Z M 2262,2144 L 2262,1247 2354,1205 2354,3508 2262,3550 2262,3302 2254,3341 2246,3377 2238,3414 2229,3445 2220,3476 2210,3505 2201,3523 2201,3526 2200,3532 2190,3557 2179,3580 2168,3601 2156,3622 2144,3638 2131,3654 2118,3668 2104,3682 2090,3691 2078,3698 2066,3703 2055,3704 2045,3705 2034,3701 2023,3699 2014,3692 2004,3685 1994,3674 1986,3663 1976,3650 1967,3634 1959,3614 1951,3595 1943,3572 1936,3547 1922,3493 1910,3433 1899,3368 1891,3297 1889,3282 1889,3277 1884,3220 1880,3140 1877,3052 1877,2957 1877,2861 1880,2769 1885,2678 1889,2614 1889,2606 1891,2594 1900,2510 1910,2432 1922,2357 1936,2285 1944,2251 1951,2218 1959,2189 1968,2159 1976,2132 1986,2107 1994,2085 2004,2063 2014,2043 2024,2023 2034,2009 2045,1991 2056,1979 2067,1966 2078,1957 2090,1949 2105,1940 2118,1937 2131,1934 2144,1934 2156,1935 2168,1941 2180,1948 2190,1958 2200,1970 2201,1972 2201,1972 2210,1987 2220,2007 2230,2027 2238,2054 2246,2083 2255,2111 2262,2144 Z M 1965,2899 L 1966,2972 1968,3039 1970,3103 1974,3163 1980,3214 1986,3265 1994,3309 2004,3347 2009,3365 2014,3381 2019,3394 2025,3407 2031,3419 2037,3429 2043,3439 2050,3446 2057,3450 2064,3453 2072,3457 2079,3458 2086,3458 2095,3456 2111,3448 2120,3443 2128,3435 2136,3427 2144,3417 2151,3407 2159,3394 2166,3382 2172,3367 2178,3352 2185,3337 2191,3319 2197,3299 2201,3283 2201,3281 2203,3280 2209,3258 2215,3236 2220,3214 2226,3190 2230,3166 2235,3140 2239,3113 2246,3056 2252,2999 2256,2934 2259,2867 2261,2798 2262,2724 2261,2651 2259,2584 2256,2519 2252,2459 2245,2405 2239,2356 2231,2310 2225,2288 2220,2269 2215,2249 2209,2233 2204,2219 2201,2212 2201,2212 2198,2206 2192,2194 2186,2184 2179,2174 2173,2167 2166,2163 2159,2160 2151,2156 2144,2155 2136,2155 2128,2157 2111,2165 2103,2170 2095,2178 2087,2186 2079,2196 2072,2206 2064,2219 2057,2231 2050,2246 2043,2262 2037,2276 2031,2294 2025,2314 2019,2334 2014,2356 2009,2379 2004,2401 2000,2425 1994,2450 1987,2504 1981,2563 1975,2624 1970,2686 1968,2753 1966,2825 1965,2899 Z M 2938,1916 L 2939,1019 3039,1003 3038,3306 2938,3322 2938,3074 2930,3111 2921,3145 2912,3179 2903,3208 2893,3237 2882,3263 2871,3287 2859,3308 2847,3326 2834,3342 2826,3346 2826,3349 2820,3359 2807,3371 2792,3383 2777,3393 2762,3404 2745,3409 2732,3413 2719,3414 2706,3412 2695,3410 2682,3403 2671,3399 2660,3388 2648,3378 2637,3365 2628,3352 2617,3336 2607,3317 2598,3295 2589,3273 2580,3249 2571,3221 2556,3164 2542,3099 2531,3032 2521,2959 2514,2893 2514,2890 2513,2880 2508,2798 2505,2709 2504,2614 2505,2518 2508,2427 2513,2337 2514,2323 2514,2317 2521,2255 2531,2173 2542,2099 2556,2027 2572,1959 2580,1927 2589,1897 2598,1870 2607,1842 2617,1817 2628,1795 2638,1776 2648,1756 2660,1739 2671,1722 2682,1711 2695,1696 2707,1687 2719,1678 2732,1671 2746,1667 2762,1662 2778,1663 2792,1664 2807,1668 2820,1672 2826,1675 2826,1675 2834,1682 2847,1694 2859,1708 2871,1725 2882,1745 2893,1768 2903,1791 2912,1819 2921,1851 2930,1882 2938,1916 Z M 2605,2582 L 2605,2655 2607,2723 2610,2787 2615,2848 2622,2901 2629,2953 2638,3000 2648,3040 2654,3060 2660,3077 2666,3092 2672,3106 2679,3121 2686,3132 2693,3144 2701,3152 2708,3158 2716,3164 2725,3169 2733,3173 2741,3175 2751,3175 2770,3172 2779,3169 2788,3164 2798,3158 2807,3150 2814,3142 2823,3131 2826,3125 2826,3122 2831,3122 2839,3109 2846,3097 2854,3085 2861,3070 2868,3053 2874,3036 2881,3015 2887,2995 2893,2975 2899,2952 2904,2930 2909,2905 2913,2879 2921,2824 2927,2768 2932,2705 2935,2639 2937,2570 2938,2496 2937,2423 2935,2355 2932,2290 2927,2228 2920,2172 2913,2122 2904,2074 2898,2051 2893,2030 2887,2009 2881,1991 2875,1975 2868,1960 2861,1945 2854,1932 2847,1920 2839,1910 2831,1903 2826,1899 2826,1899 2823,1897 2814,1891 2807,1888 2798,1885 2788,1886 2770,1889 2760,1891 2751,1897 2742,1903 2733,1911 2725,1918 2716,1929 2709,1940 2701,1953 2693,1966 2686,1979 2679,1995 2673,2013 2666,2032 2660,2053 2654,2073 2648,2094 2643,2118 2638,2141 2629,2193 2622,2249 2615,2309 2610,2370 2607,2436 2605,2508 2605,2582 Z M 3860,3477 L 3850,3546 3839,3609 3829,3664 3818,3714 3808,3759 3798,3795 3788,3826 3783,3838 3778,3848 3773,3858 3767,3868 3764,3868 3764,3870 3756,3883 3744,3899 3731,3911 3716,3918 3701,3925 3685,3926 3669,3928 3588,3921 3588,3692 3648,3697 3658,3698 3667,3696 3676,3691 3685,3687 3692,3682 3696,3677 3699,3671 3703,3669 3706,3664 3709,3656 3712,3651 3715,3643 3718,3635 3725,3616 3731,3592 3737,3563 3743,3531 3750,3490 3763,3402 3764,3391 3764,3385 3781,3282 3764,3170 3764,3167 3532,1630 3640,1639 3764,2489 3764,2491 3831,2956 4022,1697 4076,1707 4077,1707 4126,1721 4076,2043 4075,2051 3860,3477 Z M 4489,2023 L 4480,2019 4470,2018 4462,2018 4453,2020 4445,2022 4436,2027 4429,2032 4421,2040 4413,2048 4407,2059 4399,2070 4393,2081 4390,2085 4389,2088 4387,2098 4380,2113 4374,2130 4368,2150 4357,2191 4349,2238 4341,2290 4334,2343 4329,2404 4325,2465 4323,2533 4322,2606 4323,2678 4325,2746 4328,2812 4333,2874 4340,2933 4348,2990 4356,3041 4361,3064 4367,3088 4373,3108 4379,3129 4386,3150 4389,3159 4390,3162 4391,3168 4399,3188 4406,3204 4412,3217 4420,3231 4428,3245 4436,3256 4445,3268 4453,3277 4462,3285 4470,3291 4480,3298 4489,3301 4499,3305 4507,3306 4517,3306 4525,3304 4533,3302 4541,3297 4549,3292 4556,3284 4564,3276 4571,3265 4578,3254 4585,3243 4590,3226 4597,3212 4603,3195 4608,3176 4614,3156 4619,3136 4628,3091 4636,3039 4643,2987 4647,2929 4650,2865 4652,2797 4653,2727 4652,2655 4650,2587 4647,2520 4643,2458 4636,2398 4628,2341 4624,2315 4619,2288 4614,2265 4609,2241 4603,2217 4597,2195 4591,2176 4585,2155 4578,2139 4571,2122 4564,2106 4556,2092 4549,2079 4541,2067 4533,2056 4525,2048 4517,2039 4507,2033 4499,2027 4489,2023 Z M 4489,1791 L 4520,1806 4548,1827 4561,1841 4574,1857 4587,1872 4599,1893 4611,1912 4623,1933 4634,1956 4645,1982 4655,2008 4664,2036 4674,2067 4683,2098 4692,2131 4700,2164 4707,2200 4715,2235 4720,2273 4726,2313 4736,2394 4744,2478 4749,2570 4753,2664 4753,2765 4752,2863 4749,2954 4744,3042 4735,3121 4726,3194 4714,3260 4707,3293 4699,3322 4692,3350 4683,3376 4675,3400 4665,3424 4655,3444 4645,3462 4634,3480 4624,3495 4611,3507 4600,3519 4588,3527 4574,3533 4561,3539 4548,3542 4519,3542 4489,3533 4459,3519 4430,3497 4416,3483 4403,3467 4391,3451 4390,3448 4389,3448 4378,3434 4365,3414 4353,3395 4343,3373 4331,3348 4321,3323 4310,3296 4301,3266 4292,3236 4283,3203 4275,3171 4267,3136 4260,3099 4248,3025 4237,2945 4229,2861 4223,2770 4219,2676 4218,2578 4219,2477 4223,2386 4229,2297 4237,2218 4247,2144 4253,2108 4260,2074 4267,2043 4274,2013 4283,1985 4292,1957 4302,1933 4311,1908 4321,1887 4332,1868 4343,1849 4355,1833 4366,1820 4378,1809 4389,1796 4390,1796 4391,1797 4404,1791 4417,1785 4430,1782 4459,1782 4489,1791 Z M 4900,2994 L 4900,1991 4995,2027 4995,3019 4996,3077 4997,3132 5000,3182 5003,3229 5007,3272 5013,3315 5014,3321 5014,3324 5016,3333 5018,3351 5022,3369 5026,3387 5029,3403 5034,3418 5038,3434 5043,3448 5048,3461 5053,3472 5058,3486 5064,3494 5070,3505 5075,3513 5082,3522 5088,3528 5102,3541 5117,3551 5135,3558 5151,3561 5167,3558 5175,3554 5183,3550 5190,3545 5196,3538 5203,3530 5210,3520 5215,3509 5222,3499 5227,3485 5232,3472 5238,3455 5242,3439 5247,3422 5251,3405 5255,3385 5259,3365 5265,3322 5269,3273 5272,3222 5274,3169 5275,3109 5275,2169 5365,2215 5365,3872 5275,3826 5275,3572 5267,3604 5258,3635 5249,3660 5240,3685 5230,3707 5220,3727 5210,3743 5199,3757 5188,3768 5176,3778 5165,3783 5152,3787 5139,3789 5126,3788 5112,3786 5098,3779 5075,3764 5054,3745 5043,3734 5033,3721 5024,3705 5015,3692 5014,3689 5014,3689 5005,3675 4997,3658 4988,3641 4980,3621 4972,3602 4965,3580 4958,3558 4951,3534 4945,3510 4939,3483 4934,3457 4929,3427 4925,3399 4920,3367 4913,3301 4908,3231 4903,3156 4901,3079 4900,2994 Z M 5132,2054 L 5132,2054 Z M 5871,2729 L 5863,2714 5855,2698 5850,2691 5847,2686 5842,2678 5838,2673 5828,2663 5819,2653 5809,2645 5798,2639 5780,2633 5762,2629 5754,2630 5745,2634 5738,2636 5730,2643 5723,2647 5717,2655 5709,2665 5703,2675 5697,2685 5691,2699 5686,2712 5680,2729 5676,2746 5670,2765 5667,2785 5662,2804 5656,2847 5650,2898 5645,2951 5642,3009 5641,3074 5640,3141 5640,4014 5548,3967 5549,2309 5640,2356 5640,2612 5647,2581 5655,2549 5663,2524 5672,2498 5682,2476 5692,2457 5703,2441 5714,2427 5726,2417 5737,2406 5751,2402 5764,2399 5778,2397 5793,2400 5809,2402 5825,2411 5834,2415 5839,2418 5845,2423 5856,2435 5864,2441 5870,2447 5871,2729 Z M 6285,2042 L 6376,2089 6376,4392 6285,4346 6285,2042 Z M 6777,3132 L 6768,3128 6759,3126 6751,3124 6743,3126 6735,3127 6727,3131 6720,3135 6712,3142 6705,3150 6699,3160 6692,3170 6685,3180 6680,3197 6674,3210 6668,3226 6663,3245 6653,3284 6645,3328 6637,3379 6631,3430 6627,3491 6623,3552 6621,3619 6620,3692 6621,3763 6623,3832 6626,3899 6630,3962 6637,4022 6644,4080 6652,4134 6656,4158 6662,4182 6667,4204 6673,4226 6679,4248 6684,4268 6692,4288 6698,4304 6704,4319 6711,4333 6720,4348 6727,4360 6735,4373 6743,4382 6751,4392 6759,4399 6768,4406 6777,4411 6786,4415 6794,4417 6804,4419 6812,4417 6819,4416 6827,4412 6834,4407 6841,4400 6849,4393 6855,4383 6862,4373 6869,4362 6874,4346 6880,4333 6886,4317 6891,4298 6897,4279 6901,4259 6910,4215 6917,4164 6924,4113 6928,4055 6931,3991 6933,3924 6934,3853 6933,3782 6931,3713 6928,3646 6924,3584 6917,3523 6910,3465 6906,3438 6901,3411 6897,3387 6891,3363 6886,3338 6880,3316 6874,3296 6869,3275 6862,3258 6855,3240 6849,3223 6842,3209 6834,3194 6827,3182 6819,3170 6812,3161 6804,3151 6795,3144 6786,3137 6777,3132 Z M 6777,2901 L 6806,2918 6833,2943 6846,2958 6859,2975 6870,2992 6882,3014 6894,3034 6905,3056 6916,3081 6926,3108 6935,3134 6944,3164 6953,3196 6963,3227 6971,3262 6979,3296 6985,3332 6992,3368 6998,3406 7003,3447 7013,3529 7020,3614 7025,3707 7028,3801 7029,3902 7028,4000 7025,4091 7020,4179 7012,4256 7003,4328 6991,4393 6985,4425 6978,4454 6971,4480 6962,4506 6954,4529 6945,4552 6935,4571 6926,4588 6915,4604 6906,4618 6894,4629 6883,4640 6871,4647 6859,4652 6846,4656 6833,4658 6806,4655 6777,4642 6748,4625 6721,4600 6708,4585 6695,4567 6683,4551 6672,4531 6660,4508 6649,4487 6639,4462 6628,4435 6619,4409 6609,4379 6600,4347 6592,4316 6584,4281 6577,4248 6570,4211 6563,4173 6552,4096 6542,4014 6534,3929 6529,3836 6525,3741 6525,3643 6525,3542 6529,3452 6535,3364 6542,3286 6551,3215 6556,3179 6563,3147 6570,3118 6576,3089 6584,3063 6592,3037 6601,3014 6610,2992 6619,2972 6629,2955 6639,2939 6650,2925 6661,2914 6672,2906 6684,2896 6696,2891 6709,2887 6721,2885 6749,2888 6777,2901 Z M 7541,4138 L 7540,4066 7538,3997 7535,3934 7530,3872 7525,3815 7517,3760 7514,3743 7514,3743 7509,3710 7504,3686 7500,3662 7494,3640 7489,3618 7483,3599 7478,3580 7472,3560 7465,3543 7458,3529 7451,3514 7444,3500 7437,3488 7428,3478 7420,3468 7412,3459 7404,3452 7386,3440 7368,3433 7360,3432 7352,3433 7344,3434 7335,3436 7328,3440 7321,3447 7314,3454 7307,3462 7301,3473 7295,3486 7289,3499 7283,3512 7279,3529 7273,3545 7264,3584 7256,3626 7249,3675 7243,3726 7239,3784 7235,3845 7233,3912 7232,3982 7233,4054 7235,4123 7238,4187 7242,4249 7249,4307 7255,4362 7263,4413 7269,4437 7273,4461 7278,4483 7284,4505 7289,4524 7296,4544 7301,4563 7307,4580 7315,4594 7322,4609 7328,4623 7336,4636 7343,4645 7352,4654 7360,4664 7368,4671 7386,4683 7404,4689 7412,4691 7420,4690 7428,4688 7436,4687 7444,4683 7451,4675 7458,4668 7464,4661 7471,4650 7477,4637 7483,4624 7489,4610 7494,4594 7500,4578 7504,4558 7510,4539 7513,4519 7514,4512 7514,4509 7518,4497 7525,4448 7530,4395 7535,4337 7538,4276 7540,4208 7541,4138 Z M 7635,4817 L 7634,4921 7632,5015 7626,5103 7619,5182 7610,5252 7604,5285 7598,5316 7592,5346 7585,5373 7578,5398 7570,5422 7561,5443 7553,5464 7543,5483 7533,5498 7523,5513 7514,5518 7514,5520 7511,5524 7501,5535 7489,5543 7476,5550 7464,5552 7437,5554 7408,5550 7377,5537 7353,5522 7331,5508 7309,5488 7287,5469 7266,5447 7245,5420 7225,5394 7205,5361 7205,5097 7215,5119 7225,5137 7245,5175 7264,5204 7284,5233 7294,5246 7303,5256 7313,5267 7323,5277 7333,5285 7343,5290 7362,5303 7384,5312 7404,5316 7423,5315 7440,5308 7448,5304 7456,5297 7464,5290 7471,5280 7478,5270 7484,5260 7491,5247 7496,5233 7501,5217 7506,5200 7510,5183 7514,5166 7514,5163 7515,5164 7519,5143 7523,5120 7529,5074 7534,5018 7538,4962 7540,4898 7541,4830 7541,4696 7533,4729 7525,4759 7517,4785 7514,4787 7514,4790 7508,4808 7499,4831 7489,4850 7479,4867 7468,4881 7457,4891 7445,4902 7433,4906 7420,4910 7407,4912 7393,4910 7379,4908 7363,4900 7351,4894 7339,4885 7327,4874 7315,4862 7305,4848 7294,4832 7283,4813 7273,4794 7262,4775 7253,4751 7243,4727 7234,4700 7225,4674 7217,4645 7209,4614 7201,4582 7186,4515 7174,4443 7163,4366 7154,4288 7148,4206 7142,4119 7139,4027 7139,3934 7139,3842 7142,3753 7148,3672 7154,3596 7163,3527 7174,3462 7186,3403 7201,3350 7209,3327 7217,3304 7225,3284 7234,3266 7243,3249 7253,3235 7262,3221 7273,3213 7283,3204 7294,3196 7305,3191 7316,3188 7327,3189 7339,3189 7351,3193 7363,3199 7379,3207 7393,3220 7407,3232 7420,3248 7433,3265 7446,3282 7457,3305 7468,3327 7479,3351 7489,3378 7499,3408 7508,3440 7514,3462 7514,3462 7517,3471 7526,3505 7533,3540 7541,3579 7541,3328 7635,3364 7635,4817 Z M 8054,3720 L 8045,3716 8035,3715 8027,3714 8018,3717 8010,3719 8001,3724 7994,3729 7986,3737 7978,3745 7972,3756 7964,3767 7958,3778 7952,3795 7945,3808 7940,3825 7934,3845 7923,3884 7915,3930 7907,3982 7901,4034 7896,4095 7892,4156 7890,4223 7889,4297 7890,4368 7892,4437 7895,4503 7900,4565 7906,4625 7914,4682 7922,4735 7927,4758 7933,4782 7939,4804 7944,4825 7951,4846 7957,4865 7964,4884 7971,4900 7977,4914 7985,4928 7993,4942 8001,4953 8010,4964 8018,4973 8027,4982 8035,4988 8045,4994 8054,4998 8064,5002 8072,5002 8082,5003 8090,5001 8098,4998 8106,4994 8114,4988 8121,4980 8129,4972 8136,4961 8139,4955 8139,4952 8143,4950 8150,4938 8156,4921 8163,4907 8169,4889 8175,4869 8180,4849 8185,4828 8195,4782 8203,4730 8210,4677 8215,4618 8218,4554 8220,4486 8221,4416 8220,4344 8218,4276 8215,4210 8210,4148 8203,4089 8195,4032 8190,4006 8185,3981 8181,3957 8175,3934 8169,3910 8163,3890 8156,3872 8150,3851 8143,3835 8139,3826 8139,3826 8136,3819 8129,3803 8121,3789 8114,3775 8106,3764 8098,3753 8090,3744 8082,3736 8072,3729 8064,3723 8054,3720 Z M 8054,3488 L 8085,3502 8113,3524 8126,3537 8139,3553 8139,3553 8139,3553 8152,3568 8165,3588 8178,3605 8189,3625 8201,3647 8212,3672 8223,3696 8232,3724 8242,3754 8252,3784 8261,3816 8270,3849 8276,3883 8284,3918 8290,3955 8296,3995 8307,4074 8315,4158 8319,4250 8323,4343 8324,4444 8323,4542 8319,4634 8315,4722 8306,4802 8296,4875 8283,4943 8276,4976 8269,5007 8261,5035 8252,5062 8243,5087 8233,5112 8223,5133 8213,5152 8201,5171 8190,5187 8178,5200 8166,5213 8153,5223 8139,5224 8139,5227 8139,5230 8126,5236 8113,5239 8084,5239 8054,5230 8024,5215 7995,5193 7981,5180 7968,5164 7956,5148 7943,5130 7931,5109 7920,5088 7909,5065 7898,5039 7888,5013 7878,4985 7868,4954 7860,4923 7851,4890 7844,4857 7836,4821 7830,4783 7817,4708 7807,4627 7799,4543 7794,4450 7790,4356 7789,4258 7790,4157 7794,4066 7799,3978 7807,3899 7816,3827 7822,3791 7829,3758 7836,3728 7843,3698 7851,3671 7860,3645 7869,3621 7879,3597 7888,3577 7899,3559 7909,3541 7921,3526 7932,3514 7943,3505 7956,3493 7969,3488 7982,3482 7995,3479 8024,3479 8054,3488 Z M 9354,4381 L 9354,5381 9252,5384 9252,4392 9251,4335 9250,4283 9247,4234 9244,4188 9239,4147 9233,4107 9230,4090 9226,4074 9222,4058 9218,4042 9214,4028 9209,4015 9203,4001 9198,3990 9192,3980 9187,3972 9181,3961 9175,3956 9168,3948 9162,3943 9155,3937 9148,3935 9131,3930 9115,3928 9095,3931 9077,3932 9077,3934 9077,3937 9068,3942 9058,3946 9050,3954 9042,3961 9034,3969 9026,3979 9019,3989 9012,4002 9005,4015 8998,4031 8992,4047 8986,4063 8979,4082 8974,4100 8969,4119 8964,4138 8960,4159 8956,4180 8953,4202 8950,4226 8945,4275 8942,4326 8940,4381 8939,4441 8939,5379 8837,5370 8837,3066 8939,3075 8939,3977 8948,3943 8958,3911 8968,3879 8978,3850 8990,3823 9001,3800 9012,3779 9024,3761 9036,3745 9049,3730 9062,3720 9077,3711 9077,3708 9077,3705 9092,3702 9106,3696 9121,3690 9138,3690 9163,3692 9187,3699 9199,3704 9211,3712 9221,3723 9231,3730 9241,3744 9250,3757 9259,3770 9268,3786 9277,3803 9285,3821 9292,3840 9299,3862 9306,3883 9312,3908 9317,3932 9323,3959 9327,3986 9332,4016 9340,4079 9346,4147 9351,4220 9353,4296 9354,4381 Z M 10063,4317 L 10063,4450 10015,4472 10015,4472 9702,4567 9702,4567 9616,4581 9618,4648 9622,4713 9628,4772 9635,4826 9643,4876 9648,4900 9653,4921 9659,4942 9665,4963 9671,4981 9678,4999 9685,5017 9693,5032 9700,5044 9702,5047 9702,5047 9709,5058 9717,5067 9725,5078 9734,5086 9744,5094 9763,5102 9784,5109 9806,5108 9829,5103 9857,5092 9871,5085 9885,5078 9898,5069 9912,5057 9924,5045 9938,5032 9951,5018 9964,5003 9977,4988 9991,4970 10015,4930 10015,4930 10017,4929 10041,4883 10041,5139 10016,5180 10015,5181 10015,5181 9990,5213 9962,5243 9935,5270 9907,5293 9880,5312 9852,5326 9823,5337 9789,5345 9756,5344 9725,5334 9702,5319 9702,5319 9697,5317 9682,5303 9669,5289 9655,5272 9643,5252 9630,5233 9618,5210 9607,5185 9596,5159 9586,5131 9576,5102 9567,5071 9559,5040 9551,5005 9544,4971 9538,4934 9532,4897 9523,4819 9516,4733 9511,4644 9510,4548 9512,4447 9516,4354 9522,4263 9531,4180 9543,4099 9549,4063 9557,4023 9564,3989 9573,3955 9582,3921 9592,3889 9602,3858 9613,3831 9624,3802 9636,3779 9648,3755 9660,3734 9673,3713 9687,3694 9701,3678 9702,3675 9702,3673 9715,3663 9729,3648 9744,3636 9774,3613 9807,3600 9836,3594 9863,3597 9877,3601 9890,3605 9901,3612 9914,3622 9925,3632 9936,3645 9947,3661 9958,3677 9967,3693 9977,3715 9987,3736 9995,3758 10004,3783 10012,3808 10015,3820 10015,3823 10019,3835 10026,3864 10032,3895 10037,3925 10046,3992 10054,4065 10059,4144 10062,4227 10063,4317 Z M 9968,4273 L 9967,4219 9964,4168 9961,4120 9957,4075 9950,4034 9942,3998 9933,3962 9924,3930 9918,3915 9913,3900 9906,3889 9900,3877 9893,3868 9888,3859 9880,3850 9873,3844 9865,3839 9858,3835 9842,3829 9825,3829 9808,3831 9788,3840 9769,3851 9752,3868 9734,3887 9719,3910 9711,3921 9704,3937 9702,3937 9702,3937 9697,3949 9690,3964 9683,3978 9677,3996 9671,4013 9665,4030 9660,4050 9655,4070 9645,4113 9638,4157 9631,4205 9626,4257 9622,4310 9619,4368 9702,4354 9702,4354 9968,4273 Z M 10525,3566 L 10518,3560 10510,3554 10506,3551 10502,3550 10498,3547 10494,3547 10485,3547 10476,3548 10466,3551 10456,3557 10438,3571 10421,3587 10413,3597 10406,3610 10399,3620 10391,3636 10384,3648 10378,3663 10371,3681 10365,3698 10359,3716 10354,3735 10349,3755 10344,3777 10339,3799 10334,3824 10331,3848 10327,3864 10327,3866 10326,3872 10320,3922 10313,3979 10309,4036 10306,4097 10304,4163 10303,4232 10303,5104 10210,5147 10210,3489 10303,3447 10303,3703 10311,3664 10319,3625 10327,3591 10327,3588 10327,3586 10336,3556 10345,3523 10355,3492 10365,3464 10376,3438 10387,3415 10398,3392 10411,3373 10424,3354 10437,3338 10451,3323 10466,3308 10482,3299 10490,3293 10495,3290 10501,3290 10512,3288 10519,3287 10525,3286 10525,3566 Z M 11023,3679 L 11023,3813 10952,3883 10952,3883 10666,4114 10668,4181 10671,4244 10676,4300 10681,4350 10688,4397 10691,4418 10695,4437 10700,4455 10705,4473 10710,4488 10715,4502 10721,4517 10727,4528 10733,4537 10740,4548 10746,4554 10753,4562 10760,4567 10768,4571 10784,4572 10800,4573 10819,4563 10838,4551 10861,4530 10872,4518 10883,4506 10894,4492 10905,4475 10915,4458 10926,4441 10936,4422 10947,4402 10952,4393 10952,4390 10957,4382 10967,4359 10987,4307 11005,4253 11005,4509 10986,4558 10967,4602 10952,4627 10952,4630 10946,4643 10924,4680 10901,4712 10879,4741 10856,4765 10833,4786 10805,4806 10778,4817 10753,4818 10730,4812 10718,4805 10708,4797 10697,4787 10688,4773 10677,4759 10668,4742 10659,4722 10650,4702 10643,4678 10640,4672 10640,4672 10634,4654 10626,4626 10619,4598 10613,4567 10606,4535 10601,4500 10596,4465 10588,4391 10582,4307 10579,4219 10578,4125 10579,4023 10582,3928 10588,3835 10595,3749 10606,3663 10611,3624 10618,3582 10624,3545 10631,3508 10639,3470 10640,3464 10640,3462 10647,3434 10655,3398 10664,3366 10673,3332 10682,3302 10691,3273 10701,3246 10711,3219 10722,3194 10733,3171 10744,3151 10756,3131 10768,3113 10793,3080 10819,3055 10843,3039 10865,3032 10876,3031 10887,3031 10896,3034 10906,3039 10916,3045 10925,3055 10933,3067 10942,3079 10950,3092 10952,3098 10952,3098 10957,3109 10964,3127 10971,3145 10977,3166 10983,3187 10988,3212 10994,3239 10998,3267 11003,3296 11010,3360 11016,3430 11020,3508 11022,3590 11023,3679 Z M 10951,3672 L 10950,3618 10947,3568 10945,3521 10941,3478 10936,3438 10929,3405 10922,3373 10914,3344 10909,3331 10906,3318 10900,3309 10895,3299 10890,3293 10885,3286 10879,3280 10873,3276 10867,3273 10861,3272 10848,3272 10834,3277 10820,3286 10804,3302 10789,3320 10774,3342 10760,3367 10748,3397 10741,3410 10736,3428 10730,3443 10725,3462 10719,3480 10714,3500 10710,3520 10705,3540 10701,3562 10697,3585 10689,3632 10684,3680 10678,3731 10674,3786 10671,3840 10669,3899 10951,3672 Z M 11186,4038 L 11265,3960 11265,4336 11186,4414 11186,4038 Z M 11186,2204 L 11265,2125 11265,3095 11257,3632 11193,3695 11186,3174 11186,2204 Z"/>
       <path fill="none" stroke="rgb(0,0,0)" stroke-width="26" d="M 1531,2153 L 1425,3360 1576,3210 1576,3210 1645,3154 1576,2574 1576,2569 1531,2153 Z"/>
       <path fill="none" stroke="rgb(0,0,0)" stroke-width="26" d="M 1487,1903 L 1576,1814 1576,1814 1577,1813 1821,3827 1731,3900 1672,3380 1576,3458 1576,3458 1400,3633 1347,4253 1265,4335 1487,1903 Z"/>
       <path fill="none" stroke="rgb(0,0,0)" stroke-width="26" d="M 2262,2144 L 2262,1247 2354,1205 2354,3508 2262,3550 2262,3302 2254,3341 2246,3377 2238,3414 2229,3445 2220,3476 2210,3505 2201,3523 2201,3526 2200,3532 2190,3557 2179,3580 2168,3601 2156,3622 2144,3638 2131,3654 2118,3668 2104,3682 2090,3691 2078,3698 2066,3703 2055,3704 2045,3705 2034,3701 2023,3699 2014,3692 2004,3685 1994,3674 1986,3663 1976,3650 1967,3634 1959,3614 1951,3595 1943,3572 1936,3547 1922,3493 1910,3433 1899,3368 1891,3297 1889,3282 1889,3277 1884,3220 1880,3140 1877,3052 1877,2957 1877,2861 1880,2769 1885,2678 1889,2614 1889,2606 1891,2594 1900,2510 1910,2432 1922,2357 1936,2285 1944,2251 1951,2218 1959,2189 1968,2159 1976,2132 1986,2107 1994,2085 2004,2063 2014,2043 2024,2023 2034,2009 2045,1991 2056,1979 2067,1966 2078,1957 2090,1949 2105,1940 2118,1937 2131,1934 2144,1934 2156,1935 2168,1941 2180,1948 2190,1958 2200,1970 2201,1972 2201,1972 2210,1987 2220,2007 2230,2027 2238,2054 2246,2083 2255,2111 2262,2144 Z"/>
       <path fill="none" stroke="rgb(0,0,0)" stroke-width="26" d="M 1965,2899 L 1966,2972 1968,3039 1970,3103 1974,3163 1980,3214 1986,3265 1994,3309 2004,3347 2009,3365 2014,3381 2019,3394 2025,3407 2031,3419 2037,3429 2043,3439 2050,3446 2057,3450 2064,3453 2072,3457 2079,3458 2086,3458 2095,3456 2111,3448 2120,3443 2128,3435 2136,3427 2144,3417 2151,3407 2159,3394 2166,3382 2172,3367 2178,3352 2185,3337 2191,3319 2197,3299 2201,3283 2201,3281 2203,3280 2209,3258 2215,3236 2220,3214 2226,3190 2230,3166 2235,3140 2239,3113 2246,3056 2252,2999 2256,2934 2259,2867 2261,2798 2262,2724 2261,2651 2259,2584 2256,2519 2252,2459 2245,2405 2239,2356 2231,2310 2225,2288 2220,2269 2215,2249 2209,2233 2204,2219 2201,2212 2201,2212 2198,2206 2192,2194 2186,2184 2179,2174 2173,2167 2166,2163 2159,2160 2151,2156 2144,2155 2136,2155 2128,2157 2111,2165 2103,2170 2095,2178 2087,2186 2079,2196 2072,2206 2064,2219 2057,2231 2050,2246 2043,2262 2037,2276 2031,2294 2025,2314 2019,2334 2014,2356 2009,2379 2004,2401 2000,2425 1994,2450 1987,2504 1981,2563 1975,2624 1970,2686 1968,2753 1966,2825 1965,2899 Z"/>
       <path fill="none" stroke="rgb(0,0,0)" stroke-width="26" d="M 2938,1916 L 2939,1019 3039,1003 3038,3306 2938,3322 2938,3074 2930,3111 2921,3145 2912,3179 2903,3208 2893,3237 2882,3263 2871,3287 2859,3308 2847,3326 2834,3342 2826,3346 2826,3349 2820,3359 2807,3371 2792,3383 2777,3393 2762,3404 2745,3409 2732,3413 2719,3414 2706,3412 2695,3410 2682,3403 2671,3399 2660,3388 2648,3378 2637,3365 2628,3352 2617,3336 2607,3317 2598,3295 2589,3273 2580,3249 2571,3221 2556,3164 2542,3099 2531,3032 2521,2959 2514,2893 2514,2890 2513,2880 2508,2798 2505,2709 2504,2614 2505,2518 2508,2427 2513,2337 2514,2323 2514,2317 2521,2255 2531,2173 2542,2099 2556,2027 2572,1959 2580,1927 2589,1897 2598,1870 2607,1842 2617,1817 2628,1795 2638,1776 2648,1756 2660,1739 2671,1722 2682,1711 2695,1696 2707,1687 2719,1678 2732,1671 2746,1667 2762,1662 2778,1663 2792,1664 2807,1668 2820,1672 2826,1675 2826,1675 2834,1682 2847,1694 2859,1708 2871,1725 2882,1745 2893,1768 2903,1791 2912,1819 2921,1851 2930,1882 2938,1916 Z"/>
       <path fill="none" stroke="rgb(0,0,0)" stroke-width="26" d="M 2605,2582 L 2605,2655 2607,2723 2610,2787 2615,2848 2622,2901 2629,2953 2638,3000 2648,3040 2654,3060 2660,3077 2666,3092 2672,3106 2679,3121 2686,3132 2693,3144 2701,3152 2708,3158 2716,3164 2725,3169 2733,3173 2741,3175 2751,3175 2770,3172 2779,3169 2788,3164 2798,3158 2807,3150 2814,3142 2823,3131 2826,3125 2826,3122 2831,3122 2839,3109 2846,3097 2854,3085 2861,3070 2868,3053 2874,3036 2881,3015 2887,2995 2893,2975 2899,2952 2904,2930 2909,2905 2913,2879 2921,2824 2927,2768 2932,2705 2935,2639 2937,2570 2938,2496 2937,2423 2935,2355 2932,2290 2927,2228 2920,2172 2913,2122 2904,2074 2898,2051 2893,2030 2887,2009 2881,1991 2875,1975 2868,1960 2861,1945 2854,1932 2847,1920 2839,1910 2831,1903 2826,1899 2826,1899 2823,1897 2814,1891 2807,1888 2798,1885 2788,1886 2770,1889 2760,1891 2751,1897 2742,1903 2733,1911 2725,1918 2716,1929 2709,1940 2701,1953 2693,1966 2686,1979 2679,1995 2673,2013 2666,2032 2660,2053 2654,2073 2648,2094 2643,2118 2638,2141 2629,2193 2622,2249 2615,2309 2610,2370 2607,2436 2605,2508 2605,2582 Z"/>
       <path fill="none" stroke="rgb(0,0,0)" stroke-width="26" d="M 3860,3477 L 3850,3546 3839,3609 3829,3664 3818,3714 3808,3759 3798,3795 3788,3826 3783,3838 3778,3848 3773,3858 3767,3868 3764,3868 3764,3870 3756,3883 3744,3899 3731,3911 3716,3918 3701,3925 3685,3926 3669,3928 3588,3921 3588,3692 3648,3697 3658,3698 3667,3696 3676,3691 3685,3687 3692,3682 3696,3677 3699,3671 3703,3669 3706,3664 3709,3656 3712,3651 3715,3643 3718,3635 3725,3616 3731,3592 3737,3563 3743,3531 3750,3490 3763,3402 3764,3391 3764,3385 3781,3282 3764,3170 3764,3167 3532,1630 3640,1639 3764,2489 3764,2491 3831,2956 4022,1697 4076,1707 4077,1707 4126,1721 4076,2043 4075,2051 3860,3477 Z"/>
       <path fill="none" stroke="rgb(0,0,0)" stroke-width="26" d="M 4489,2023 L 4480,2019 4470,2018 4462,2018 4453,2020 4445,2022 4436,2027 4429,2032 4421,2040 4413,2048 4407,2059 4399,2070 4393,2081 4390,2085 4389,2088 4387,2098 4380,2113 4374,2130 4368,2150 4357,2191 4349,2238 4341,2290 4334,2343 4329,2404 4325,2465 4323,2533 4322,2606 4323,2678 4325,2746 4328,2812 4333,2874 4340,2933 4348,2990 4356,3041 4361,3064 4367,3088 4373,3108 4379,3129 4386,3150 4389,3159 4390,3162 4391,3168 4399,3188 4406,3204 4412,3217 4420,3231 4428,3245 4436,3256 4445,3268 4453,3277 4462,3285 4470,3291 4480,3298 4489,3301 4499,3305 4507,3306 4517,3306 4525,3304 4533,3302 4541,3297 4549,3292 4556,3284 4564,3276 4571,3265 4578,3254 4585,3243 4590,3226 4597,3212 4603,3195 4608,3176 4614,3156 4619,3136 4628,3091 4636,3039 4643,2987 4647,2929 4650,2865 4652,2797 4653,2727 4652,2655 4650,2587 4647,2520 4643,2458 4636,2398 4628,2341 4624,2315 4619,2288 4614,2265 4609,2241 4603,2217 4597,2195 4591,2176 4585,2155 4578,2139 4571,2122 4564,2106 4556,2092 4549,2079 4541,2067 4533,2056 4525,2048 4517,2039 4507,2033 4499,2027 4489,2023 Z"/>
       <path fill="none" stroke="rgb(0,0,0)" stroke-width="26" d="M 4489,1791 L 4520,1806 4548,1827 4561,1841 4574,1857 4587,1872 4599,1893 4611,1912 4623,1933 4634,1956 4645,1982 4655,2008 4664,2036 4674,2067 4683,2098 4692,2131 4700,2164 4707,2200 4715,2235 4720,2273 4726,2313 4736,2394 4744,2478 4749,2570 4753,2664 4753,2765 4752,2863 4749,2954 4744,3042 4735,3121 4726,3194 4714,3260 4707,3293 4699,3322 4692,3350 4683,3376 4675,3400 4665,3424 4655,3444 4645,3462 4634,3480 4624,3495 4611,3507 4600,3519 4588,3527 4574,3533 4561,3539 4548,3542 4519,3542 4489,3533 4459,3519 4430,3497 4416,3483 4403,3467 4391,3451 4390,3448 4389,3448 4378,3434 4365,3414 4353,3395 4343,3373 4331,3348 4321,3323 4310,3296 4301,3266 4292,3236 4283,3203 4275,3171 4267,3136 4260,3099 4248,3025 4237,2945 4229,2861 4223,2770 4219,2676 4218,2578 4219,2477 4223,2386 4229,2297 4237,2218 4247,2144 4253,2108 4260,2074 4267,2043 4274,2013 4283,1985 4292,1957 4302,1933 4311,1908 4321,1887 4332,1868 4343,1849 4355,1833 4366,1820 4378,1809 4389,1796 4390,1796 4391,1797 4404,1791 4417,1785 4430,1782 4459,1782 4489,1791 Z"/>
       <path fill="none" stroke="rgb(0,0,0)" stroke-width="26" d="M 4900,2994 L 4900,1991 4995,2027 4995,3019 4996,3077 4997,3132 5000,3182 5003,3229 5007,3272 5013,3315 5014,3321 5014,3324 5016,3333 5018,3351 5022,3369 5026,3387 5029,3403 5034,3418 5038,3434 5043,3448 5048,3461 5053,3472 5058,3486 5064,3494 5070,3505 5075,3513 5082,3522 5088,3528 5102,3541 5117,3551 5135,3558 5151,3561 5167,3558 5175,3554 5183,3550 5190,3545 5196,3538 5203,3530 5210,3520 5215,3509 5222,3499 5227,3485 5232,3472 5238,3455 5242,3439 5247,3422 5251,3405 5255,3385 5259,3365 5265,3322 5269,3273 5272,3222 5274,3169 5275,3109 5275,2169 5365,2215 5365,3872 5275,3826 5275,3572 5267,3604 5258,3635 5249,3660 5240,3685 5230,3707 5220,3727 5210,3743 5199,3757 5188,3768 5176,3778 5165,3783 5152,3787 5139,3789 5126,3788 5112,3786 5098,3779 5075,3764 5054,3745 5043,3734 5033,3721 5024,3705 5015,3692 5014,3689 5014,3689 5005,3675 4997,3658 4988,3641 4980,3621 4972,3602 4965,3580 4958,3558 4951,3534 4945,3510 4939,3483 4934,3457 4929,3427 4925,3399 4920,3367 4913,3301 4908,3231 4903,3156 4901,3079 4900,2994 Z"/>
       <path fill="none" stroke="rgb(0,0,0)" stroke-width="26" d="M 5871,2729 L 5863,2714 5855,2698 5850,2691 5847,2686 5842,2678 5838,2673 5828,2663 5819,2653 5809,2645 5798,2639 5780,2633 5762,2629 5754,2630 5745,2634 5738,2636 5730,2643 5723,2647 5717,2655 5709,2665 5703,2675 5697,2685 5691,2699 5686,2712 5680,2729 5676,2746 5670,2765 5667,2785 5662,2804 5656,2847 5650,2898 5645,2951 5642,3009 5641,3074 5640,3141 5640,4014 5548,3967 5549,2309 5640,2356 5640,2612 5647,2581 5655,2549 5663,2524 5672,2498 5682,2476 5692,2457 5703,2441 5714,2427 5726,2417 5737,2406 5751,2402 5764,2399 5778,2397 5793,2400 5809,2402 5825,2411 5834,2415 5839,2418 5845,2423 5856,2435 5864,2441 5870,2447 5871,2729 Z"/>
       <path fill="none" stroke="rgb(0,0,0)" stroke-width="26" d="M 6285,2042 L 6376,2089 6376,4392 6285,4346 6285,2042 Z"/>
       <path fill="none" stroke="rgb(0,0,0)" stroke-width="26" d="M 6777,3132 L 6768,3128 6759,3126 6751,3124 6743,3126 6735,3127 6727,3131 6720,3135 6712,3142 6705,3150 6699,3160 6692,3170 6685,3180 6680,3197 6674,3210 6668,3226 6663,3245 6653,3284 6645,3328 6637,3379 6631,3430 6627,3491 6623,3552 6621,3619 6620,3692 6621,3763 6623,3832 6626,3899 6630,3962 6637,4022 6644,4080 6652,4134 6656,4158 6662,4182 6667,4204 6673,4226 6679,4248 6684,4268 6692,4288 6698,4304 6704,4319 6711,4333 6720,4348 6727,4360 6735,4373 6743,4382 6751,4392 6759,4399 6768,4406 6777,4411 6786,4415 6794,4417 6804,4419 6812,4417 6819,4416 6827,4412 6834,4407 6841,4400 6849,4393 6855,4383 6862,4373 6869,4362 6874,4346 6880,4333 6886,4317 6891,4298 6897,4279 6901,4259 6910,4215 6917,4164 6924,4113 6928,4055 6931,3991 6933,3924 6934,3853 6933,3782 6931,3713 6928,3646 6924,3584 6917,3523 6910,3465 6906,3438 6901,3411 6897,3387 6891,3363 6886,3338 6880,3316 6874,3296 6869,3275 6862,3258 6855,3240 6849,3223 6842,3209 6834,3194 6827,3182 6819,3170 6812,3161 6804,3151 6795,3144 6786,3137 6777,3132 Z"/>
       <path fill="none" stroke="rgb(0,0,0)" stroke-width="26" d="M 6777,2901 L 6806,2918 6833,2943 6846,2958 6859,2975 6870,2992 6882,3014 6894,3034 6905,3056 6916,3081 6926,3108 6935,3134 6944,3164 6953,3196 6963,3227 6971,3262 6979,3296 6985,3332 6992,3368 6998,3406 7003,3447 7013,3529 7020,3614 7025,3707 7028,3801 7029,3902 7028,4000 7025,4091 7020,4179 7012,4256 7003,4328 6991,4393 6985,4425 6978,4454 6971,4480 6962,4506 6954,4529 6945,4552 6935,4571 6926,4588 6915,4604 6906,4618 6894,4629 6883,4640 6871,4647 6859,4652 6846,4656 6833,4658 6806,4655 6777,4642 6748,4625 6721,4600 6708,4585 6695,4567 6683,4551 6672,4531 6660,4508 6649,4487 6639,4462 6628,4435 6619,4409 6609,4379 6600,4347 6592,4316 6584,4281 6577,4248 6570,4211 6563,4173 6552,4096 6542,4014 6534,3929 6529,3836 6525,3741 6525,3643 6525,3542 6529,3452 6535,3364 6542,3286 6551,3215 6556,3179 6563,3147 6570,3118 6576,3089 6584,3063 6592,3037 6601,3014 6610,2992 6619,2972 6629,2955 6639,2939 6650,2925 6661,2914 6672,2906 6684,2896 6696,2891 6709,2887 6721,2885 6749,2888 6777,2901 Z"/>
       <path fill="none" stroke="rgb(0,0,0)" stroke-width="26" d="M 7541,4138 L 7540,4066 7538,3997 7535,3934 7530,3872 7525,3815 7517,3760 7514,3743 7514,3743 7509,3710 7504,3686 7500,3662 7494,3640 7489,3618 7483,3599 7478,3580 7472,3560 7465,3543 7458,3529 7451,3514 7444,3500 7437,3488 7428,3478 7420,3468 7412,3459 7404,3452 7386,3440 7368,3433 7360,3432 7352,3433 7344,3434 7335,3436 7328,3440 7321,3447 7314,3454 7307,3462 7301,3473 7295,3486 7289,3499 7283,3512 7279,3529 7273,3545 7264,3584 7256,3626 7249,3675 7243,3726 7239,3784 7235,3845 7233,3912 7232,3982 7233,4054 7235,4123 7238,4187 7242,4249 7249,4307 7255,4362 7263,4413 7269,4437 7273,4461 7278,4483 7284,4505 7289,4524 7296,4544 7301,4563 7307,4580 7315,4594 7322,4609 7328,4623 7336,4636 7343,4645 7352,4654 7360,4664 7368,4671 7386,4683 7404,4689 7412,4691 7420,4690 7428,4688 7436,4687 7444,4683 7451,4675 7458,4668 7464,4661 7471,4650 7477,4637 7483,4624 7489,4610 7494,4594 7500,4578 7504,4558 7510,4539 7513,4519 7514,4512 7514,4509 7518,4497 7525,4448 7530,4395 7535,4337 7538,4276 7540,4208 7541,4138 Z"/>
       <path fill="none" stroke="rgb(0,0,0)" stroke-width="26" d="M 7635,4817 L 7634,4921 7632,5015 7626,5103 7619,5182 7610,5252 7604,5285 7598,5316 7592,5346 7585,5373 7578,5398 7570,5422 7561,5443 7553,5464 7543,5483 7533,5498 7523,5513 7514,5518 7514,5520 7511,5524 7501,5535 7489,5543 7476,5550 7464,5552 7437,5554 7408,5550 7377,5537 7353,5522 7331,5508 7309,5488 7287,5469 7266,5447 7245,5420 7225,5394 7205,5361 7205,5097 7215,5119 7225,5137 7245,5175 7264,5204 7284,5233 7294,5246 7303,5256 7313,5267 7323,5277 7333,5285 7343,5290 7362,5303 7384,5312 7404,5316 7423,5315 7440,5308 7448,5304 7456,5297 7464,5290 7471,5280 7478,5270 7484,5260 7491,5247 7496,5233 7501,5217 7506,5200 7510,5183 7514,5166 7514,5163 7515,5164 7519,5143 7523,5120 7529,5074 7534,5018 7538,4962 7540,4898 7541,4830 7541,4696 7533,4729 7525,4759 7517,4785 7514,4787 7514,4790 7508,4808 7499,4831 7489,4850 7479,4867 7468,4881 7457,4891 7445,4902 7433,4906 7420,4910 7407,4912 7393,4910 7379,4908 7363,4900 7351,4894 7339,4885 7327,4874 7315,4862 7305,4848 7294,4832 7283,4813 7273,4794 7262,4775 7253,4751 7243,4727 7234,4700 7225,4674 7217,4645 7209,4614 7201,4582 7186,4515 7174,4443 7163,4366 7154,4288 7148,4206 7142,4119 7139,4027 7139,3934 7139,3842 7142,3753 7148,3672 7154,3596 7163,3527 7174,3462 7186,3403 7201,3350 7209,3327 7217,3304 7225,3284 7234,3266 7243,3249 7253,3235 7262,3221 7273,3213 7283,3204 7294,3196 7305,3191 7316,3188 7327,3189 7339,3189 7351,3193 7363,3199 7379,3207 7393,3220 7407,3232 7420,3248 7433,3265 7446,3282 7457,3305 7468,3327 7479,3351 7489,3378 7499,3408 7508,3440 7514,3462 7514,3462 7517,3471 7526,3505 7533,3540 7541,3579 7541,3328 7635,3364 7635,4817 Z"/>
       <path fill="none" stroke="rgb(0,0,0)" stroke-width="26" d="M 8054,3720 L 8045,3716 8035,3715 8027,3714 8018,3717 8010,3719 8001,3724 7994,3729 7986,3737 7978,3745 7972,3756 7964,3767 7958,3778 7952,3795 7945,3808 7940,3825 7934,3845 7923,3884 7915,3930 7907,3982 7901,4034 7896,4095 7892,4156 7890,4223 7889,4297 7890,4368 7892,4437 7895,4503 7900,4565 7906,4625 7914,4682 7922,4735 7927,4758 7933,4782 7939,4804 7944,4825 7951,4846 7957,4865 7964,4884 7971,4900 7977,4914 7985,4928 7993,4942 8001,4953 8010,4964 8018,4973 8027,4982 8035,4988 8045,4994 8054,4998 8064,5002 8072,5002 8082,5003 8090,5001 8098,4998 8106,4994 8114,4988 8121,4980 8129,4972 8136,4961 8139,4955 8139,4952 8143,4950 8150,4938 8156,4921 8163,4907 8169,4889 8175,4869 8180,4849 8185,4828 8195,4782 8203,4730 8210,4677 8215,4618 8218,4554 8220,4486 8221,4416 8220,4344 8218,4276 8215,4210 8210,4148 8203,4089 8195,4032 8190,4006 8185,3981 8181,3957 8175,3934 8169,3910 8163,3890 8156,3872 8150,3851 8143,3835 8139,3826 8139,3826 8136,3819 8129,3803 8121,3789 8114,3775 8106,3764 8098,3753 8090,3744 8082,3736 8072,3729 8064,3723 8054,3720 Z"/>
       <path fill="none" stroke="rgb(0,0,0)" stroke-width="26" d="M 8054,3488 L 8085,3502 8113,3524 8126,3537 8139,3553 8139,3553 8139,3553 8152,3568 8165,3588 8178,3605 8189,3625 8201,3647 8212,3672 8223,3696 8232,3724 8242,3754 8252,3784 8261,3816 8270,3849 8276,3883 8284,3918 8290,3955 8296,3995 8307,4074 8315,4158 8319,4250 8323,4343 8324,4444 8323,4542 8319,4634 8315,4722 8306,4802 8296,4875 8283,4943 8276,4976 8269,5007 8261,5035 8252,5062 8243,5087 8233,5112 8223,5133 8213,5152 8201,5171 8190,5187 8178,5200 8166,5213 8153,5223 8139,5224 8139,5227 8139,5230 8126,5236 8113,5239 8084,5239 8054,5230 8024,5215 7995,5193 7981,5180 7968,5164 7956,5148 7943,5130 7931,5109 7920,5088 7909,5065 7898,5039 7888,5013 7878,4985 7868,4954 7860,4923 7851,4890 7844,4857 7836,4821 7830,4783 7817,4708 7807,4627 7799,4543 7794,4450 7790,4356 7789,4258 7790,4157 7794,4066 7799,3978 7807,3899 7816,3827 7822,3791 7829,3758 7836,3728 7843,3698 7851,3671 7860,3645 7869,3621 7879,3597 7888,3577 7899,3559 7909,3541 7921,3526 7932,3514 7943,3505 7956,3493 7969,3488 7982,3482 7995,3479 8024,3479 8054,3488 Z"/>
       <path fill="none" stroke="rgb(0,0,0)" stroke-width="26" d="M 9354,4381 L 9354,5381 9252,5384 9252,4392 9251,4335 9250,4283 9247,4234 9244,4188 9239,4147 9233,4107 9230,4090 9226,4074 9222,4058 9218,4042 9214,4028 9209,4015 9203,4001 9198,3990 9192,3980 9187,3972 9181,3961 9175,3956 9168,3948 9162,3943 9155,3937 9148,3935 9131,3930 9115,3928 9095,3931 9077,3932 9077,3934 9077,3937 9068,3942 9058,3946 9050,3954 9042,3961 9034,3969 9026,3979 9019,3989 9012,4002 9005,4015 8998,4031 8992,4047 8986,4063 8979,4082 8974,4100 8969,4119 8964,4138 8960,4159 8956,4180 8953,4202 8950,4226 8945,4275 8942,4326 8940,4381 8939,4441 8939,5379 8837,5370 8837,3066 8939,3075 8939,3977 8948,3943 8958,3911 8968,3879 8978,3850 8990,3823 9001,3800 9012,3779 9024,3761 9036,3745 9049,3730 9062,3720 9077,3711 9077,3708 9077,3705 9092,3702 9106,3696 9121,3690 9138,3690 9163,3692 9187,3699 9199,3704 9211,3712 9221,3723 9231,3730 9241,3744 9250,3757 9259,3770 9268,3786 9277,3803 9285,3821 9292,3840 9299,3862 9306,3883 9312,3908 9317,3932 9323,3959 9327,3986 9332,4016 9340,4079 9346,4147 9351,4220 9353,4296 9354,4381 Z"/>
       <path fill="none" stroke="rgb(0,0,0)" stroke-width="26" d="M 10063,4317 L 10063,4450 10015,4472 10015,4472 9702,4567 9702,4567 9616,4581 9618,4648 9622,4713 9628,4772 9635,4826 9643,4876 9648,4900 9653,4921 9659,4942 9665,4963 9671,4981 9678,4999 9685,5017 9693,5032 9700,5044 9702,5047 9702,5047 9709,5058 9717,5067 9725,5078 9734,5086 9744,5094 9763,5102 9784,5109 9806,5108 9829,5103 9857,5092 9871,5085 9885,5078 9898,5069 9912,5057 9924,5045 9938,5032 9951,5018 9964,5003 9977,4988 9991,4970 10015,4930 10015,4930 10017,4929 10041,4883 10041,5139 10016,5180 10015,5181 10015,5181 9990,5213 9962,5243 9935,5270 9907,5293 9880,5312 9852,5326 9823,5337 9789,5345 9756,5344 9725,5334 9702,5319 9702,5319 9697,5317 9682,5303 9669,5289 9655,5272 9643,5252 9630,5233 9618,5210 9607,5185 9596,5159 9586,5131 9576,5102 9567,5071 9559,5040 9551,5005 9544,4971 9538,4934 9532,4897 9523,4819 9516,4733 9511,4644 9510,4548 9512,4447 9516,4354 9522,4263 9531,4180 9543,4099 9549,4063 9557,4023 9564,3989 9573,3955 9582,3921 9592,3889 9602,3858 9613,3831 9624,3802 9636,3779 9648,3755 9660,3734 9673,3713 9687,3694 9701,3678 9702,3675 9702,3673 9715,3663 9729,3648 9744,3636 9774,3613 9807,3600 9836,3594 9863,3597 9877,3601 9890,3605 9901,3612 9914,3622 9925,3632 9936,3645 9947,3661 9958,3677 9967,3693 9977,3715 9987,3736 9995,3758 10004,3783 10012,3808 10015,3820 10015,3823 10019,3835 10026,3864 10032,3895 10037,3925 10046,3992 10054,4065 10059,4144 10062,4227 10063,4317 Z"/>
       <path fill="none" stroke="rgb(0,0,0)" stroke-width="26" d="M 9968,4273 L 9967,4219 9964,4168 9961,4120 9957,4075 9950,4034 9942,3998 9933,3962 9924,3930 9918,3915 9913,3900 9906,3889 9900,3877 9893,3868 9888,3859 9880,3850 9873,3844 9865,3839 9858,3835 9842,3829 9825,3829 9808,3831 9788,3840 9769,3851 9752,3868 9734,3887 9719,3910 9711,3921 9704,3937 9702,3937 9702,3937 9697,3949 9690,3964 9683,3978 9677,3996 9671,4013 9665,4030 9660,4050 9655,4070 9645,4113 9638,4157 9631,4205 9626,4257 9622,4310 9619,4368 9702,4354 9702,4354 9968,4273 Z"/>
       <path fill="none" stroke="rgb(0,0,0)" stroke-width="26" d="M 10525,3566 L 10518,3560 10510,3554 10506,3551 10502,3550 10498,3547 10494,3547 10485,3547 10476,3548 10466,3551 10456,3557 10438,3571 10421,3587 10413,3597 10406,3610 10399,3620 10391,3636 10384,3648 10378,3663 10371,3681 10365,3698 10359,3716 10354,3735 10349,3755 10344,3777 10339,3799 10334,3824 10331,3848 10327,3864 10327,3866 10326,3872 10320,3922 10313,3979 10309,4036 10306,4097 10304,4163 10303,4232 10303,5104 10210,5147 10210,3489 10303,3447 10303,3703 10311,3664 10319,3625 10327,3591 10327,3588 10327,3586 10336,3556 10345,3523 10355,3492 10365,3464 10376,3438 10387,3415 10398,3392 10411,3373 10424,3354 10437,3338 10451,3323 10466,3308 10482,3299 10490,3293 10495,3290 10501,3290 10512,3288 10519,3287 10525,3286 10525,3566 Z"/>
       <path fill="none" stroke="rgb(0,0,0)" stroke-width="26" d="M 11023,3679 L 11023,3813 10952,3883 10952,3883 10666,4114 10668,4181 10671,4244 10676,4300 10681,4350 10688,4397 10691,4418 10695,4437 10700,4455 10705,4473 10710,4488 10715,4502 10721,4517 10727,4528 10733,4537 10740,4548 10746,4554 10753,4562 10760,4567 10768,4571 10784,4572 10800,4573 10819,4563 10838,4551 10861,4530 10872,4518 10883,4506 10894,4492 10905,4475 10915,4458 10926,4441 10936,4422 10947,4402 10952,4393 10952,4390 10957,4382 10967,4359 10987,4307 11005,4253 11005,4509 10986,4558 10967,4602 10952,4627 10952,4630 10946,4643 10924,4680 10901,4712 10879,4741 10856,4765 10833,4786 10805,4806 10778,4817 10753,4818 10730,4812 10718,4805 10708,4797 10697,4787 10688,4773 10677,4759 10668,4742 10659,4722 10650,4702 10643,4678 10640,4672 10640,4672 10634,4654 10626,4626 10619,4598 10613,4567 10606,4535 10601,4500 10596,4465 10588,4391 10582,4307 10579,4219 10578,4125 10579,4023 10582,3928 10588,3835 10595,3749 10606,3663 10611,3624 10618,3582 10624,3545 10631,3508 10639,3470 10640,3464 10640,3462 10647,3434 10655,3398 10664,3366 10673,3332 10682,3302 10691,3273 10701,3246 10711,3219 10722,3194 10733,3171 10744,3151 10756,3131 10768,3113 10793,3080 10819,3055 10843,3039 10865,3032 10876,3031 10887,3031 10896,3034 10906,3039 10916,3045 10925,3055 10933,3067 10942,3079 10950,3092 10952,3098 10952,3098 10957,3109 10964,3127 10971,3145 10977,3166 10983,3187 10988,3212 10994,3239 10998,3267 11003,3296 11010,3360 11016,3430 11020,3508 11022,3590 11023,3679 Z"/>
       <path fill="none" stroke="rgb(0,0,0)" stroke-width="26" d="M 10951,3672 L 10950,3618 10947,3568 10945,3521 10941,3478 10936,3438 10929,3405 10922,3373 10914,3344 10909,3331 10906,3318 10900,3309 10895,3299 10890,3293 10885,3286 10879,3280 10873,3276 10867,3273 10861,3272 10848,3272 10834,3277 10820,3286 10804,3302 10789,3320 10774,3342 10760,3367 10748,3397 10741,3410 10736,3428 10730,3443 10725,3462 10719,3480 10714,3500 10710,3520 10705,3540 10701,3562 10697,3585 10689,3632 10684,3680 10678,3731 10674,3786 10671,3840 10669,3899 10951,3672 Z"/>
       <path fill="none" stroke="rgb(0,0,0)" stroke-width="26" d="M 11186,4038 L 11265,3960 11265,4336 11186,4414 11186,4038 Z"/>
       <path fill="none" stroke="rgb(0,0,0)" stroke-width="26" d="M 11186,2204 L 11265,2125 11265,3095 11257,3632 11193,3695 11186,3174 11186,2204 Z"/>
      </g>
     </g>
    </g>
   </g>
  </g>
 </g>
</svg>